<?xml version="1.0" encoding="UTF-8"?>
<svg id="Calque_2" data-name="Calque 2" xmlns="http://www.w3.org/2000/svg" viewBox="0 0 282 291.56">
  <defs>
    <style>
      .cls-1 {
        opacity: .29;
      }

      .cls-2 {
        fill: #fff;
      }
    </style>
  </defs>
  <g id="Calque_1-2" data-name="Calque 1">
    <g class="cls-1">
      <path class="cls-2" d="M259.62,192.26c5.47-15.29,5.4-31.43,4.57-47.41-1.11-21.38-2.9-42.75-4.85-64.08-1.24-13.62-11.14-22.89-23.35-22.89-4.45,0-8.62,1.29-12.23,3.54,4.29-15.07-1.41-24.51-21.77-31.8-.09-.03-.15-.12-.15-.22.4-10.91-2.24-17.6-11.93-23.15-9.87-5.65-19.48-6.34-28.25,4.93-.06.08-2.38,3-2.41,2.89-1.32-6.14-6.41-9.99-10.52-11.79-6.91-3.03-13.26-3.01-18.9-.08-1.77.45-3.56,1.09-5.39,1.98-4.04,1.96-8.97,6.01-10.05,12.2-.02.11-2.45-2.72-2.52-2.81-9.2-10.91-18.77-9.85-28.41-3.82-9.47,5.93-11.85,12.71-11.02,23.6,0,.1-.05.2-.14.23-18.52,7.46-24.48,16.27-21.44,29.3-3.48-1.8-7.39-2.75-11.48-2.59-12.2.47-21.73,10.12-22.43,23.78-1.12,21.39-2.07,42.81-2.34,64.22-.2,15.99.36,32.13,6.42,47.19L0,230.54l101.68,61.02,23.13-38.55c5.22-1.4,10.33-3.49,15.31-6.27,5.88,3.26,11.9,5.65,18.05,7.05l24.62,37.61,99.22-64.95-22.38-34.2ZM191.14,50.99c4.77-7.95,9.7-10.07,15.95-6.98,6.58,3.26,8.37,8.43,3.8,16.74-3.81,6.94-7.75,13.81-11.72,20.66-4.57-6.99-9.14-13.98-13.71-20.97,1.89-3.16,3.79-6.31,5.69-9.46ZM211.07,88.22c-.2,2.65-.41,5.54-.68,8.91-.02.21-.3.29-.43.12-1.39-1.92-2.45-3.31-3.35-4.58,1.3-1.79,2.76-3.4,4.45-4.45ZM167.15,23.16c4.29-7.1,9.43-9.42,15.07-7.12,7.54,3.08,9.46,10.18,4.7,18.16-2.97,4.96-5.95,9.91-8.92,14.87-4.59-7.01-9.19-14.01-13.79-21.01.99-1.64,1.96-3.27,2.94-4.9ZM126.95,239.45c-2.32.82-4.73,1.5-7.22,2.05l-6.58,10.97-1.58,2.63-15.3,25.49L12.23,230.15l14.2-23.66,1.97-3.28,5.09-8.48c-.9-1.96-1.7-3.97-2.38-6.01-.76-2.24-1.4-4.52-1.89-6.85-.97-4.55-1.51-9.26-1.56-14.12-.28-27.53.52-55.08,1.2-82.6.19-7.52,4.98-12.45,10.84-12.76,5.2-.27,9.42,2.47,11.47,7.52-1.5.79-2.96,1.89-4.69,3.85-8.54,9.62-9.47,23.84-2.62,34.73,19.97,31.73,40.3,63.25,61.05,94.48,4.04,6.09,8.56,11.87,13.68,17.07,3.21,3.27,6.48,6.21,9.81,8.85-.48.18-.94.39-1.43.56ZM171.48,255.35l-1.68-2.56-7.01-10.71c-2.52-.45-4.95-1.03-7.3-1.76-2.88-.89-5.63-1.97-8.27-3.24-11.89-5.74-21.47-15.16-29.48-26.75-10.87-15.72-21.02-31.94-31.49-47.93-10.99-16.78-22.04-33.52-32.9-50.4-1.86-2.9-4.93-7.13-4.28-12.17.47-3.65,2.39-5.83,5.17-7.76,2.5-1.73,7.79-1.35,10.84.16,3.3,1.63,5.81,5.38,8.01,8.65,5.16,7.68,10.17,15.46,15.26,23.19,2.47,3.77,4.96,7.53,7.49,11.25,2.69,3.97,7.82,14.99,13.95,10.69,5.63-3.95-1.77-12.84-4.13-16.42-2.49-3.76-4.95-7.54-7.38-11.34-11.28-17.69-22.81-35.23-33.62-53.19-4.89-8.14-3.3-13.36,3.14-16.88,6.11-3.33,11.13-1.4,16.21,6.35,13.2,20.13,26.38,40.29,39.57,60.42,1.85,2.82,2.96,5.16,6.44,6.34,2.57.86,5.11.39,6.09-2.24,1.64-4.44.31-6.8-2.02-10.35-15.51-23.7-31.05-47.38-46.51-71.11-5.07-7.78-3.43-14.96,3.98-18.32,5.54-2.52,10.78-.41,15.33,6.52,15.82,24.06,31.59,48.15,47.3,72.28,2.56,3.93,5.66,7.25,10.23,4.04,4.37-3.07,1.9-7.02-.42-10.54-12.19-18.54-24.34-37.1-36.44-55.69-1.61-2.47-3.24-5.07-4.09-7.85-1.92-6.29,2.39-12.82,8.87-13.96,6.64-1.17,9.87,2.8,12.94,7.5,20.63,31.63,41.25,63.27,62.17,94.71,1.93,2.9,5.97,6.29,8.95,6.21,5.55-.15,4.95-5.9,5.3-9.99.87-10.09,1.29-20.23,2.33-30.3.8-7.78,5.65-12.29,12.17-12.19,5.86.08,10.85,4.82,11.32,12.32,1.75,27.48,3.63,54.97,4.42,82.49.14,4.86-.21,9.59-1.01,14.17-.4,2.35-.96,4.65-1.62,6.91-.61,2.08-1.33,4.11-2.15,6.11l5.41,8.28,2.09,3.2,15.11,23.09-82,53.68-16.28-24.88Z"/>
      <path class="cls-2" d="M194.22,128.9c-8.95,0-17.22,4.92-21.96,12.81-4.74-7.89-13.02-12.81-21.97-12.81-10.89,0-20.71,7.33-24.45,18.23-1.04,3.07-1.58,6.23-1.58,9.41s.49,6.19,1.45,9.09c.1.32.22.61.35.87l4.04-1.89-4.02,1.92,4.03-1.91-4.02,1.91c.05.11.1.22.17.4,1.13,2.9,2.56,5.46,4.27,7.58.84,1.03,1.76,2.03,2.77,2.95l39.02,41.32,40.38-42.78c2.68-2.85,4.76-6.36,6.04-10.12,1.02-3,1.53-6.14,1.53-9.34,0-15.24-11.68-27.64-26.04-27.64ZM210.29,163.01c-.88,2.57-2.3,4.96-4.2,7l-33.78,35.79-32.65-34.58-.24-.23c-.71-.65-1.37-1.36-1.96-2.08-1.14-1.4-2.11-3.16-2.89-5.14-.13-.36-.29-.71-.45-1.05-.64-1.99-.97-4.06-.97-6.18s.37-4.39,1.1-6.52c2.5-7.31,8.94-12.21,16.02-12.21,6.63,0,12.73,4.27,15.55,10.87,1.1,2.58,3.62,4.25,6.42,4.25s5.33-1.67,6.42-4.25c2.82-6.6,8.91-10.87,15.54-10.87,9.45,0,17.13,8.41,17.13,18.73,0,2.23-.36,4.41-1.05,6.48Z"/>
    </g>
  </g>
</svg>